<svg xmlns="http://www.w3.org/2000/svg" width="70" height="70"><defs><linearGradient id="a" x1="50%" x2="50%" y1="0%" y2="100%"><stop offset="0%" stop-color="#360C0C"/><stop offset="18.55%" stop-color="#360C0C"/><stop offset="19.43%" stop-color="#F3D5B9"/><stop offset="43.83%" stop-color="#F3D5B9"/><stop offset="44.57%" stop-color="#651919"/><stop offset="100%" stop-color="#651919"/></linearGradient></defs><g fill="none" fill-rule="evenodd"><circle cx="35" cy="35" r="35" fill="#360C0C"/><g stroke="#FFF"><path fill="#FFF" d="M20 50h30.4c-.08.71-.73 1.21-1.96 1.5-4 .94-11.16 1.5-13.03 1.5-2.06 0-8.72-.36-13.52-1.5-1.04-.25-1.67-.75-1.89-1.5z"/><path d="M45.31 29.51c2.47-.25 3.99.72 4.55 2.93.3 1.17.18 4.1-1.15 5.61-.8.9-3.03 1.93-6.71 3.08"/><path fill="url(#a)" d="M4 .34c0 .45 4.07 18.15 6.1 21h9.39C21.5 18.49 26 .79 26 .34c0-.45-22-.45-22 0z" transform="translate(20 26)"/></g></g></svg>